<?xml version="1.0" encoding="UTF-8" standalone="no"?>
<!-- Created with Inkscape (http://www.inkscape.org/) -->

<svg
   width="63.999996"
   height="63.999996"
   viewBox="0 0 16.933332 16.933332"
   version="1.1"
   id="svg1"
   xmlns="http://www.w3.org/2000/svg"
   xmlns:svg="http://www.w3.org/2000/svg">
  <defs
     id="defs1" />
  <g
     id="layer1">
    <g
       id="g339"
       transform="matrix(0.44821966,0,0,0.44821966,-52.82129,-97.614708)">
      <path
         id="path332"
         style="fill:#fcfcfc;fill-opacity:1;stroke:#ff9797;stroke-width:0.94488;stroke-linecap:round;stroke-linejoin:round;stroke-miterlimit:10;stroke-dasharray:none;stroke-opacity:1"
         d="m 142.97607,218.26281 c -0.27324,0.002 -0.54913,0.0299 -0.8278,0.0853 -1.60931,0.5403 -3.19323,1.32891 -4.48604,2.44074 -1.28796,1.00039 -2.23435,2.55684 -2.30585,4.12863 l 3.69052,10.1446 c 0.23149,0.26119 0.46805,0.52172 0.75516,0.72404 2.68453,1.06485 5.46869,2.28121 8.42559,2.14559 1.86247,-0.25535 3.17769,-1.72961 3.33542,-3.59943 0.0284,-2.28721 0.33255,-4.75053 -0.73557,-6.86453 -0.60868,-2.33954 -1.15072,-4.85865 -2.88924,-6.66161 -1.29208,-1.34844 -3.04955,-2.55882 -4.96219,-2.54335 z m -0.27209,6.97405 c 0.74587,0.0261 1.50335,0.28718 2.13176,0.64679 0.66962,0.62256 1.0361,1.55427 1.30742,2.41193 0.0659,1.10098 -0.12187,2.54782 -1.31318,2.98723 -0.77134,0.1703 -1.6269,0.27929 -2.39694,0.0576 -0.5842,-0.3693 -1.79109,-0.3867 -1.90809,-1.15408 0.14091,-0.92231 -0.046,-1.75041 -0.44157,-2.57794 l -0.71366,-0.053 c 0.20032,-0.87923 1.07867,-1.31152 1.68212,-1.88965 0.49977,-0.32738 1.07202,-0.44915 1.65214,-0.42889 z" />
      <path
         id="path333"
         style="fill:#fcfcfc;fill-opacity:1;stroke:#ff9797;stroke-width:0.94488;stroke-linecap:round;stroke-linejoin:round;stroke-miterlimit:10;stroke-dasharray:none;stroke-opacity:1"
         d="m 125.9312,225.2311 c -1.10476,0.0243 -2.20226,0.31572 -2.9953,1.09643 -1.93899,1.71618 -2.48854,4.42822 -2.21362,6.90488 -0.17679,1.73542 0.39202,3.40141 1.26015,4.88495 1.066,1.24119 1.94606,2.81411 3.4288,3.63633 1.72382,1.22604 4.03514,0.77635 5.87647,0.0795 1.24642,-0.51107 2.73202,-3.70978 3.41593,-5.2212 -0.13133,1.07347 -0.48,3.92368 -0.31456,4.41184 0.52902,2.55343 0.0761,5.25793 -1.16099,7.54475 -0.93138,1.28858 -1.92029,2.67081 -3.2282,3.6029 -0.82795,0.53664 -1.28628,0.66915 0.0254,0.58684 1.57215,0.41322 3.03978,1.34274 4.29349,2.33122 1.33204,-1.17544 1.59812,-3.25811 2.02685,-4.94375 0.63937,-2.45679 0.6329,-5.01563 0.17063,-7.50325 -0.25567,-2.10006 -0.61881,-4.26389 -1.60257,-6.14971 l -2.82236,-9.13925 c -1.04139,-1.32283 -2.72759,-1.38877 -4.22778,-1.92654 -0.60375,-0.12933 -1.26945,-0.21055 -1.93231,-0.19599 z m 2.64712,5.51675 c 0.0388,-0.001 0.0782,-0.001 0.1176,0 0.73602,0.004 1.71588,0.078 2.26204,0.4139 l 0.32974,0.46002 c -0.0685,0.34772 -0.24102,0.68137 -0.41736,0.98806 -0.72949,0.71166 -1.11446,1.71626 -1.97035,2.30931 -0.59512,0.56071 -1.40535,1.35383 -2.22745,0.65947 -0.59158,-0.68936 -0.77801,-1.75126 -0.49115,-2.6206 0.25639,-1.12612 1.19316,-2.17775 2.39693,-2.21016 z" />
      <path
         id="path334"
         d="m 140.44252,240.47515 c 1.11705,2.04372 2.62368,3.89251 4.37124,5.42466 1.92535,1.27597 4.10692,2.27314 6.45326,2.3297 0.91479,0.131 2.12482,0.48413 0.97969,-0.6913 -0.43957,-1.7103 -0.6949,-3.47722 -1.07881,-5.20712 -0.89951,-0.34211 -3.02676,0.38966 -4.39087,-0.0401 -1.92524,-0.36096 -3.76742,-1.23821 -4.79665,-2.99128 -0.82325,-1.36008 -2.0008,-2.42515 -2.97615,-3.67571 l -0.34386,0.0292 c 0.0151,1.8279 0.90505,3.4982 1.78215,4.82197 z"
         style="fill:#fcfcfc;fill-opacity:1;stroke:#ff9797;stroke-width:0.94488;stroke-linecap:round;stroke-linejoin:round;stroke-miterlimit:10;stroke-dasharray:none;stroke-opacity:1" />
      <path
         id="path335"
         d="m 188.3579,326.8031 c -2.3946,0.5288 -5.2161,-3.0287 -6.3021,-7.9461 -1.086,-4.9173 -0.0253,-9.3323 2.3692,-9.8611 2.3946,-0.5289 5.2161,3.0287 6.3021,7.946 1.086,4.9173 0.0253,9.3323 -2.3692,9.8612 z"
         style="fill:#fcfcfc;fill-opacity:1;stroke:#ff9797;stroke-width:1.29921;stroke-linecap:round;stroke-linejoin:round;stroke-miterlimit:10;stroke-dasharray:none;stroke-opacity:1"
         transform="scale(0.7272728)" />
    </g>
  </g>
</svg>
