<?xml version="1.0" encoding="UTF-8" standalone="no"?>
<!-- Created with Inkscape (http://www.inkscape.org/) -->

<svg
   width="64"
   height="64"
   viewBox="0 0 16.933333 16.933333"
   version="1.1"
   id="svg1"
   inkscape:version="1.3.2 (091e20ef0f, 2023-11-25)"
   sodipodi:docname="bow.svg"
   inkscape:export-filename="bow.min.svg"
   inkscape:export-xdpi="96"
   inkscape:export-ydpi="96"
   xmlns:inkscape="http://www.inkscape.org/namespaces/inkscape"
   xmlns:sodipodi="http://sodipodi.sourceforge.net/DTD/sodipodi-0.dtd"
   xmlns="http://www.w3.org/2000/svg"
   xmlns:svg="http://www.w3.org/2000/svg">
  <sodipodi:namedview
     id="namedview1"
     pagecolor="#ffffff"
     bordercolor="#000000"
     borderopacity="0.25"
     inkscape:showpageshadow="2"
     inkscape:pageopacity="0.0"
     inkscape:pagecheckerboard="0"
     inkscape:deskcolor="#d1d1d1"
     inkscape:document-units="mm"
     inkscape:zoom="21.153492"
     inkscape:cx="31.271432"
     inkscape:cy="31.673257"
     inkscape:window-width="2560"
     inkscape:window-height="1406"
     inkscape:window-x="0"
     inkscape:window-y="0"
     inkscape:window-maximized="1"
     inkscape:current-layer="layer1" />
  <defs
     id="defs1" />
  <g
     inkscape:label="Layer 1"
     inkscape:groupmode="layer"
     id="layer1">
    <g
       id="g339"
       transform="matrix(0.44821966,0,0,0.44821966,-52.82129,-97.614708)">
      <path
         id="path332"
         style="fill:#fcfcfc;fill-opacity:1;stroke:#ff9797;stroke-width:0.94488;stroke-linecap:round;stroke-linejoin:round;stroke-miterlimit:10;stroke-dasharray:none;stroke-opacity:1"
         d="M 142.97607 218.26281 C 142.70283 218.26502 142.42694 218.29271 142.14827 218.34813 C 140.53896 218.88843 138.95504 219.67704 137.66223 220.78887 C 136.37427 221.78926 135.42788 223.34571 135.35638 224.9175 L 139.0469 235.0621 C 139.27839 235.32329 139.51495 235.58382 139.80206 235.78614 C 142.48659 236.85099 145.27075 238.06735 148.22765 237.93173 C 150.09012 237.67638 151.40534 236.20212 151.56307 234.3323 C 151.59145 232.04509 151.89562 229.58177 150.8275 227.46777 C 150.21882 225.12823 149.67678 222.60912 147.93826 220.80616 C 146.64618 219.45772 144.88871 218.24734 142.97607 218.26281 z M 142.70398 225.23686 C 143.44985 225.26292 144.20733 225.52404 144.83574 225.88365 C 145.50536 226.50621 145.87184 227.43792 146.14316 228.29558 C 146.20906 229.39656 146.02129 230.8434 144.82998 231.28281 C 144.05864 231.45311 143.20308 231.5621 142.43304 231.34045 C 141.84884 230.97115 140.64195 230.95375 140.52495 230.18637 C 140.66586 229.26406 140.47893 228.43596 140.08338 227.60843 L 139.36972 227.5554 C 139.57004 226.67617 140.44839 226.24388 141.05184 225.66575 C 141.55161 225.33837 142.12386 225.2166 142.70398 225.23686 z " />
      <path
         id="path333"
         style="fill:#fcfcfc;fill-opacity:1;stroke:#ff9797;stroke-width:0.94488;stroke-linecap:round;stroke-linejoin:round;stroke-miterlimit:10;stroke-dasharray:none;stroke-opacity:1"
         d="m 125.9312,225.2311 c -1.10476,0.0243 -2.20226,0.31572 -2.9953,1.09643 -1.93899,1.71618 -2.48854,4.42822 -2.21362,6.90488 -0.17679,1.73542 0.39202,3.40141 1.26015,4.88495 1.066,1.24119 1.94606,2.81411 3.4288,3.63633 1.72382,1.22604 4.03514,0.77635 5.87647,0.0795 1.24642,-0.51107 2.73202,-3.70978 3.41593,-5.2212 -0.13133,1.07347 -0.48,3.92368 -0.31456,4.41184 0.52902,2.55343 0.0761,5.25793 -1.16099,7.54475 -0.93138,1.28858 -1.92029,2.67081 -3.2282,3.6029 -0.82795,0.53664 -1.28628,0.66915 0.0254,0.58684 1.57215,0.41322 3.03978,1.34274 4.29349,2.33122 1.33204,-1.17544 1.59812,-3.25811 2.02685,-4.94375 0.63937,-2.45679 0.6329,-5.01563 0.17063,-7.50325 -0.25567,-2.10006 -0.61881,-4.26389 -1.60257,-6.14971 l -2.82236,-9.13925 c -1.04139,-1.32283 -2.72759,-1.38877 -4.22778,-1.92654 -0.60375,-0.12933 -1.26945,-0.21055 -1.93231,-0.19599 z m 2.64712,5.51675 c 0.0388,-0.001 0.0782,-0.001 0.1176,0 0.73602,0.004 1.71588,0.078 2.26204,0.4139 l 0.32974,0.46002 c -0.0685,0.34772 -0.24102,0.68137 -0.41736,0.98806 -0.72949,0.71166 -1.11446,1.71626 -1.97035,2.30931 -0.59512,0.56071 -1.40535,1.35383 -2.22745,0.65947 -0.59158,-0.68936 -0.77801,-1.75126 -0.49115,-2.6206 0.25639,-1.12612 1.19316,-2.17775 2.39693,-2.21016 z"
         sodipodi:nodetypes="ccccccccccccccccccccccccccc" />
      <path
         id="path334"
         d="m 140.44252,240.47515 c 1.11705,2.04372 2.62368,3.89251 4.37124,5.42466 1.92535,1.27597 4.10692,2.27314 6.45326,2.3297 0.91479,0.131 2.12482,0.48413 0.97969,-0.6913 -0.43957,-1.7103 -0.6949,-3.47722 -1.07881,-5.20712 -0.89951,-0.34211 -3.02676,0.38966 -4.39087,-0.0401 -1.92524,-0.36096 -3.76742,-1.23821 -4.79665,-2.99128 -0.82325,-1.36008 -2.0008,-2.42515 -2.97615,-3.67571 l -0.34386,0.0292 c 0.0151,1.8279 0.90505,3.4982 1.78215,4.82197 z"
         style="fill:#fcfcfc;stroke:#ff9797;stroke-width:0.94488;stroke-linecap:round;stroke-linejoin:round;stroke-miterlimit:10;stroke-dasharray:none;stroke-opacity:1;fill-opacity:1"
         sodipodi:nodetypes="ccccccccccc" />
      <path
         id="path335"
         d="m 188.3579,326.8031 c -2.3946,0.5288 -5.2161,-3.0287 -6.3021,-7.9461 -1.086,-4.9173 -0.0253,-9.3323 2.3692,-9.8611 2.3946,-0.5289 5.2161,3.0287 6.3021,7.946 1.086,4.9173 0.0253,9.3323 -2.3692,9.8612 z"
         style="fill:#fcfcfc;stroke:#ff9797;stroke-width:1.29921;stroke-linecap:round;stroke-linejoin:round;stroke-miterlimit:10;stroke-dasharray:none;stroke-opacity:1;fill-opacity:1"
         transform="scale(0.7272728)" />
    </g>
  </g>
</svg>
